<?xml version="1.0" encoding="utf-8"?>
<!-- Generator: Adobe Illustrator 24.1.0, SVG Export Plug-In . SVG Version: 6.00 Build 0)  -->
<svg version="1.1" id="Layer_1" xmlns="http://www.w3.org/2000/svg" xmlns:xlink="http://www.w3.org/1999/xlink" x="0px" y="0px"
	 viewBox="0 0 3300 2200" style="enable-background:new 0 0 3300 2200;" xml:space="preserve">
<style type="text/css">
	.st0{fill:none;stroke:#000000;stroke-width:0.5;}
	.st1{font-family:'Arial-BoldMT';}
	.st2{font-size:12px;}
	.st3{font-family:'ArialMT';}
	.st4{opacity:0.4;fill:#00AEEF;enable-background:new    ;}
	.st5{fill:#27AAE1;}
	.st6{fill:none;stroke:#27AAE1;stroke-width:0.577;}
</style>
<g id="Notes">
	<line class="st0" x1="263" y1="292" x2="3036" y2="292"/>
	<text transform="matrix(1 0 0 1 263 322)" class="st1 st2">Weight/Scale Variations</text>
	<text transform="matrix(1 0 0 1 536.0362 322)" class="st3 st2">Ultralight</text>
	<text transform="matrix(1 0 0 1 844.7501 322)" class="st3 st2">Thin</text>
	<text transform="matrix(1 0 0 1 1140.1193 322)" class="st3 st2">Light</text>
	<text transform="matrix(1 0 0 1 1428.8282 322)" class="st3 st2">Regular</text>
	<text transform="matrix(1 0 0 1 1725.2202 322)" class="st3 st2">Medium</text>
	<text transform="matrix(1 0 0 1 2018.2563 322)" class="st3 st2">Semibold</text>
	<text transform="matrix(1 0 0 1 2327.9712 322)" class="st3 st2">Bold</text>
	<text transform="matrix(1 0 0 1 2619.6831 322)" class="st3 st2">Heavy</text>
	<text transform="matrix(1 0 0 1 2918.728 322)" class="st3 st2">Black</text>
	<line class="st0" x1="263" y1="1903" x2="3036" y2="1903"/>
	<g transform="matrix(1 0 0 1 263 1933)">
		<path d="M9.2,0.8c4.3,0,7.9-3.6,7.9-7.9S13.5-15,9.2-15s-7.9,3.6-7.9,7.9C1.4-2.7,5,0.8,9.2,0.8z M9.2-0.7c-3.5,0-6.4-2.8-6.4-6.4
			s2.8-6.4,6.4-6.4s6.4,2.8,6.4,6.4C15.7-3.5,12.8-0.7,9.2-0.7z M9.2-3.4c0.5,0,0.7-0.3,0.7-0.8v-2.1h2.2C12.7-6.3,13-6.6,13-7
			c0-0.5-0.3-0.7-0.8-0.7H10V-10c0-0.5-0.3-0.8-0.7-0.8S8.5-10.5,8.5-10v2.2H6.3C5.8-7.8,5.4-7.5,5.4-7s0.4,0.7,0.8,0.7h2.2v2.1
			C8.5-3.8,8.8-3.4,9.2-3.4z"/>
	</g>
	<g transform="matrix(1 0 0 1 281.506 1933)">
		<path d="M11.7,2.9c5.4,0,10-4.5,10-10c0-5.4-4.5-10-10-10c-5.4,0-10,4.5-10,10C1.7-1.6,6.3,2.9,11.7,2.9z M11.7,1.2
			c-4.6,0-8.3-3.7-8.3-8.3s3.7-8.3,8.3-8.3S20-11.7,20-7.1C20-2.4,16.3,1.2,11.7,1.2z M11.7-2.4c0.5,0,0.8-0.4,0.8-0.9v-2.9h3.1
			c0.5,0,0.9-0.3,0.9-0.8s-0.4-0.8-0.9-0.8h-3.1v-3.1c0-0.6-0.3-0.9-0.8-0.9s-0.8,0.4-0.8,0.9v3.1h-3c-0.6-0.1-1,0.2-1,0.8
			c0,0.5,0.4,0.8,0.9,0.8h3v2.9C10.9-2.8,11.2-2.4,11.7-2.4z"/>
	</g>
	<g transform="matrix(1 0 0 1 304.924 1933)">
		<path d="M15,5.7c7,0,12.7-5.8,12.7-12.7c0-7-5.8-12.7-12.7-12.7C8-19.8,2.3-14,2.3-7C2.3-0.1,8,5.7,15,5.7z M15,3.9
			C8.9,3.9,4.1-1,4.1-7S8.9-17.9,15-17.9c6,0,10.9,4.9,10.9,10.9S21,3.9,15,3.9z M15-1.1c0.6,0,0.9-0.4,0.9-1v-4.1h4.2
			c0.6,0,1-0.3,1-0.9S20.7-8,20.1-8h-4.2v-4.2c0-0.6-0.4-1-0.9-1c-0.6,0-0.9,0.4-0.9,1V-8H9.8c-0.6,0-1,0.3-1,0.9s0.4,0.9,1,0.9H14
			v4.1C14.1-1.5,14.4-1.1,15-1.1z"/>
	</g>
	<text transform="matrix(1 0 0 1 263 1953)" class="st1 st2">Design Variations</text>
	<text transform="matrix(1 0 0 1 263 1971)" class="st3 st2">Symbols are supported in up to nine weights and three scales.</text>
	<text transform="matrix(1 0 0 1 263 1989)" class="st3 st2">For optimal layout with text and other symbols, vertically align</text>
	<text transform="matrix(1 0 0 1 263 2007)" class="st3 st2">symbols with the adjacent text.</text>
	<rect x="776" y="1919" class="st4" width="3" height="14"/>
	<g transform="matrix(1 0 0 1 779 1933)">
		<path d="M10.5,0h1.8L7.2-14.1H5.4L0.2,0H2l1.4-4H9L10.5,0z M6.3-12L6.3-12l2.3,6.4H4L6.3-12z"/>
	</g>
	<rect x="791.6" y="1919" class="st4" width="3" height="14"/>
	<text transform="matrix(1 0 0 1 776 1953)" class="st1 st2">Margins</text>
	<text transform="matrix(1 0 0 1 776 1971)" class="st3 st2">Leading and trailing margins on the left and right side of each symbol</text>
	<text transform="matrix(1 0 0 1 776 1989)" class="st3 st2">can be adjusted by modifying the width of the blue rectangles.</text>
	<text transform="matrix(1 0 0 1 776 2007)" class="st3 st2">Modifications are automatically applied proportionally to all</text>
	<text transform="matrix(1 0 0 1 776 2025)" class="st3 st2">scales and weights.</text>
	<g transform="matrix(1 0 0 1 1289 1933)">
		<path d="M2.8,3.1l1.5,1.5C5.1,5.4,6.1,5.4,7,4.4L17.3-6.7c0.4,0.3,0.8,0.3,1.3,0.2l1-0.2L20.3-6v0.5c-0.1,0.5,0.1,1,0.5,1.5
			l0.8,0.8c0.5,0.5,1.2,0.5,1.6,0.1l3.3-3.3C27-6.9,27-7.5,26.5-8l-0.8-0.8c-0.5-0.5-0.9-0.7-1.4-0.6l-0.5,0.1L23.1-10l0.3-1.1
			c0.1-0.6,0-1-0.6-1.6l-2.4-2.4c-3.5-3.5-8.1-3.4-11.2-0.3C8.8-15,8.7-14.4,9-14c0.2,0.4,0.7,0.6,1.4,0.4c1.5-0.4,3-0.3,4.5,0.7
			l-0.6,1.6c-0.2,0.6-0.2,1.1,0,1.5L3,0.4C2.1,1.3,2,2.3,2.8,3.1z M10.7-15.1c2.7-2,6-1.7,8.4,0.7l2.6,2.6c0.2,0.2,0.3,0.4,0.2,0.7
			l-0.4,1.6L23.1-8H24c0.3,0,0.4,0,0.6,0.2l0.6,0.6l-2.8,2.7l-0.6-0.6c-0.2-0.2-0.2-0.3-0.2-0.6l0.1-1l-1.6-1.6L18.5-8
			c-0.3,0.1-0.4,0.1-0.7-0.2l-2.2-2.2c-0.2-0.2-0.3-0.4-0.1-0.7l0.9-2.3c-1.6-1.5-3.7-2.4-5.8-1.7c-0.1,0-0.2,0-0.2,0
			C10.6-15,10.6-15.1,10.7-15.1z M4.1,2.4c-0.5-0.5-0.3-0.8,0-1.1l11-10.1l1.2,1.2L6.2,3.3c-0.3,0.3-0.7,0.4-1.1,0L4.1,2.4z"/>
	</g>
	<text transform="matrix(1 0 0 1 1289 1953)" class="st1 st2">Exporting</text>
	<text transform="matrix(1 0 0 1 1289 1971)" class="st3 st2">Symbols should be outlined when exporting to ensure the</text>
	<text transform="matrix(1 0 0 1 1289 1989)" class="st3 st2">design is preserved when submitting to Xcode.</text>
	<text id="template-version" transform="matrix(1 0 0 1 2958.8496 1933)" class="st3 st2">Template v.1.0</text>
	<text transform="matrix(1 0 0 1 2887.2656 1951)" class="st3 st2">Generated from chart.bar.fill</text>
	<text transform="matrix(1 0 0 1 2921.9238 1969)" class="st3 st2">Typeset at 100 points</text>
	<text transform="matrix(1 0 0 1 263 726)" class="st3 st2">Small</text>
	<text transform="matrix(1 0 0 1 263 1156)" class="st3 st2">Medium</text>
	<text transform="matrix(1 0 0 1 263 1586)" class="st3 st2">Large</text>
</g>
<g id="Guides">
	<g id="H-reference" transform="matrix(1 0 0 1 339 696)">
		<path class="st5" d="M54.9,0h2.7l-27-70.5h-2.5L1,0h2.7L13-24.5h32.8L54.9,0z M29.2-67.1h0.2l15.4,40.4h-31L29.2-67.1z"/>
	</g>
	<line id="Baseline-S" class="st6" x1="263" y1="696" x2="3036" y2="696"/>
	<line id="Capline-S" class="st6" x1="263" y1="625.5" x2="3036" y2="625.5"/>
	<g id="H-reference_1_" transform="matrix(1 0 0 1 339 1126)">
		<path class="st5" d="M54.9,0h2.7l-27-70.5h-2.5L1,0h2.7L13-24.5h32.8L54.9,0z M29.2-67.1h0.2l15.4,40.4h-31L29.2-67.1z"/>
	</g>
	<line id="Baseline-M" class="st6" x1="263" y1="1126" x2="3036" y2="1126"/>
	<line id="Capline-M" class="st6" x1="263" y1="1055.5" x2="3036" y2="1055.5"/>
	<g id="H-reference_2_" transform="matrix(1 0 0 1 339 1556)">
		<path class="st5" d="M54.9,0h2.7l-27-70.5h-2.5L1,0h2.7L13-24.5h32.8L54.9,0z M29.2-67.1h0.2l15.4,40.4h-31L29.2-67.1z"/>
	</g>
	<line id="Baseline-L" class="st6" x1="263" y1="1556" x2="3036" y2="1556"/>
	<line id="Capline-L" class="st6" x1="263" y1="1485.5" x2="3036" y2="1485.5"/>
	<rect id="left-margin" x="1376" y="1030.8" class="st4" width="12.5" height="119.3"/>
	<rect id="right-margin" x="1511.2" y="1030.8" class="st4" width="12.5" height="119.3"/>
</g>
<g id="Symbols">
	<g id="Black-L" transform="matrix(1 0 0 1 2827.27 1556)">
		<path d="M63.6,22.1C68.7,16.4,83.1-1.2,88-3.1c8.8-1.1,9.4,4.3,23.5,3.5L71-40c-0.8,14,4.7,14.7,3.5,23.5
			C72.6-11.8,55.1,2.7,49.3,7.8C40.9,16.2,55.2,30.5,63.6,22.1z M121.7-94.6c-26,1.5-48.7,23.9-50.5,50.1l44.8,44.8
			C173.6-1.8,187.6-96.1,121.7-94.6z"/>
	</g>
	<g id="Heavy-L" transform="matrix(1 0 0 1 2533.37 1556)">
		<path d="M60.8,22.1c5.1-5.7,19.6-23.3,24.4-25.2c8.8-1.1,9.4,4.3,23.5,3.5L68.2-40c-0.8,14,4.7,14.7,3.5,23.5
			C69.8-11.8,52.3,2.7,46.5,7.8C38.1,16.2,52.4,30.5,60.8,22.1z M118.9-94.6c-26,1.5-48.7,23.9-50.5,50.1l44.8,44.8
			C170.8-1.8,184.8-96.1,118.9-94.6z"/>
	</g>
	<g id="Bold-L" transform="matrix(1 0 0 1 2239.78 1556)">
		<path d="M57.7,22.1c5.1-5.7,19.6-23.3,24.4-25.2c8.8-1.1,9.4,4.3,23.5,3.5L65.1-40c-0.8,14,4.7,14.7,3.5,23.5
			C66.7-11.8,49.2,2.7,43.4,7.8C35,16.2,49.3,30.5,57.7,22.1z M115.9-94.6c-26,1.5-48.7,23.9-50.5,50.1l44.8,44.8
			C167.7-1.8,181.7-96.1,115.9-94.6z"/>
	</g>
	<g id="Semibold-L" transform="matrix(1 0 0 1 1945.24 1556)">
		<path d="M55.5,22.1C60.7,16.4,75.1-1.2,80-3.1c8.8-1.1,9.4,4.3,23.5,3.5L63-40c-0.8,14,4.7,14.7,3.5,23.5
			C64.6-11.8,47,2.7,41.2,7.8C32.9,16.2,47.2,30.5,55.5,22.1z M113.7-94.6c-26,1.5-48.7,23.9-50.5,50.1L108,0.2
			C165.5-1.8,179.6-96.1,113.7-94.6z"/>
	</g>
	<g id="Medium-L" transform="matrix(1 0 0 1 1650.17 1556)">
		<path d="M53.9,22.1C59,16.4,73.5-1.2,78.3-3.1c8.8-1.1,9.4,4.3,23.5,3.5L61.3-40c-0.8,14,4.7,14.7,3.5,23.5
			C62.9-11.8,45.4,2.7,39.6,7.8C31.2,16.2,45.5,30.5,53.9,22.1z M112.1-94.6c-26,1.5-48.7,23.9-50.5,50.1l44.8,44.8
			C163.9-1.8,177.9-96.1,112.1-94.6z"/>
	</g>
	<g id="Regular-L" transform="matrix(1 0 0 1 1355.58 1556)">
		<path d="M51.7,22.1c5.1-5.7,19.6-23.3,24.4-25.2c8.8-1.1,9.4,4.3,23.5,3.5L59.2-40c-0.8,14,4.7,14.7,3.5,23.5
			C60.8-11.8,43.2,2.7,37.4,7.8C29.1,16.2,43.4,30.5,51.7,22.1z M109.9-94.6c-26,1.5-48.7,23.9-50.5,50.1l44.8,44.8
			C161.7-1.8,175.8-96.1,109.9-94.6z"/>
	</g>
	<g id="Light-L" transform="matrix(1 0 0 1 1060.21 1556)">
		<path d="M50.4,22.1C55.6,16.4,70-1.2,74.9-3.1c8.8-1.1,9.4,4.3,23.5,3.5L57.9-40c-0.8,14,4.7,14.7,3.5,23.5
			C59.5-11.8,41.9,2.7,36.1,7.8C27.8,16.2,42.1,30.5,50.4,22.1z M108.6-94.6c-26,1.5-48.7,23.9-50.5,50.1l44.8,44.8
			C160.4-1.8,174.5-96.1,108.6-94.6z"/>
	</g>
	<g id="Thin-L" transform="matrix(1 0 0 1 765.26 1556)">
		<path d="M48.7,22.1c5.1-5.7,19.6-23.3,24.4-25.2c8.8-1.1,9.4,4.3,23.5,3.5L56.1-40c-0.8,14,4.7,14.7,3.5,23.5
			C57.7-11.8,40.2,2.7,34.4,7.8C26,16.2,40.3,30.5,48.7,22.1z M106.8-94.6c-26,1.5-48.7,23.9-50.5,50.1l44.8,44.8
			C158.7-1.8,172.7-96.1,106.8-94.6z"/>
	</g>
	<g id="Ultralight-L" transform="matrix(1 0 0 1 469.452 1556)">
		<path d="M47.7,22.9c5.1-5.7,19.6-23.3,24.4-25.2c8.8-1.1,9.4,4.3,23.5,3.5L55.2-39.2c-0.8,14,4.7,14.7,3.5,23.5
			C56.8-11,39.2,3.4,33.4,8.6C25.1,16.9,39.4,31.2,47.7,22.9z M105.9-93.9c-26,1.5-48.7,23.9-50.5,50.1L100.2,1
			C157.7-1,171.8-95.4,105.9-93.9z"/>
	</g>
	<g id="Black-M" transform="matrix(1 0 0 1 2848.1 1126)">
		<path d="M42.7,21.6c5.1-5.7,19.6-23.3,24.4-25.2c8.8-1.1,9.4,4.3,23.5,3.5L50.2-40.5c-0.8,14,4.7,14.7,3.5,23.5
			C51.8-12.3,34.2,2.1,28.4,7.3C20.1,15.6,34.4,29.9,42.7,21.6z M100.9-95.2c-26,1.5-48.7,23.9-50.5,50.1L95.2-0.3
			C152.7-2.3,166.8-96.7,100.9-95.2z"/>
	</g>
	<g id="Heavy-M" transform="matrix(1 0 0 1 2554.1 1126)">
		<path d="M40,21.6c5.1-5.7,19.6-23.3,24.4-25.2c8.8-1.1,9.4,4.3,23.5,3.5L47.5-40.5c-0.8,14,4.7,14.7,3.5,23.5
			C49.1-12.3,31.5,2.1,25.7,7.3C17.4,15.6,31.7,29.9,40,21.6z M98.2-95.2c-26,1.5-48.7,23.9-50.5,50.1L92.5-0.3
			C150-2.3,164.1-96.7,98.2-95.2z"/>
	</g>
	<g id="Bold-M" transform="matrix(1 0 0 1 2260.41 1126)">
		<path d="M37.1,21.6c5.1-5.7,19.6-23.3,24.4-25.2C70.3-4.8,71,0.6,85-0.2L44.5-40.5c-0.8,14,4.7,14.7,3.5,23.5
			C46.1-12.3,28.6,2.1,22.8,7.3C14.4,15.6,28.7,29.9,37.1,21.6z M95.2-95.2c-26,1.5-48.7,23.9-50.5,50.1L89.6-0.3
			C147.1-2.3,161.1-96.7,95.2-95.2z"/>
	</g>
	<g id="Semibold-M" transform="matrix(1 0 0 1 1965.8 1126)">
		<path d="M35,21.6c5.1-5.7,19.6-23.3,24.4-25.2c8.8-1.1,9.4,4.3,23.5,3.5L42.4-40.5c-0.8,14,4.7,14.7,3.5,23.5
			C44-12.3,26.5,2.1,20.7,7.3C12.3,15.6,26.6,29.9,35,21.6z M93.1-95.2c-26,1.5-48.7,23.9-50.5,50.1L87.5-0.3
			C145-2.3,159-96.7,93.1-95.2z"/>
	</g>
	<g id="Medium-M" transform="matrix(1 0 0 1 1670.68 1126)">
		<path d="M33.4,21.6c5.1-5.7,19.6-23.3,24.4-25.2c8.8-1.1,9.4,4.3,23.5,3.5L40.8-40.5c-0.8,14,4.7,14.7,3.5,23.5
			C42.4-12.3,24.9,2.1,19.1,7.3C10.7,15.6,25,29.9,33.4,21.6z M91.5-95.2c-26,1.5-48.7,23.9-50.5,50.1L85.9-0.3
			C143.4-2.3,157.4-96.7,91.5-95.2z"/>
	</g>
	<g id="Regular-M" transform="matrix(1 0 0 1 1376.04 1126)">
		<path d="M31.3,21.6c5.1-5.7,19.6-23.3,24.4-25.2c8.8-1.1,9.4,4.3,23.5,3.5L38.7-40.5c-0.8,14,4.7,14.7,3.5,23.5
			C40.3-12.3,22.8,2.1,17,7.3C8.6,15.6,22.9,29.9,31.3,21.6z M89.5-95.2c-26,1.5-48.7,23.9-50.5,50.1L83.8-0.3
			C141.3-2.3,155.3-96.7,89.5-95.2z"/>
	</g>
	<g id="Light-M" transform="matrix(1 0 0 1 1080.53 1126)">
		<path d="M30.1,21.6c5.1-5.7,19.6-23.3,24.4-25.2C63.3-4.8,64,0.6,78-0.2L37.6-40.5c-0.8,14,4.7,14.7,3.5,23.5
			C39.2-12.3,21.6,2.1,15.8,7.3C7.5,15.6,21.8,29.9,30.1,21.6z M88.3-95.2c-26,1.5-48.7,23.9-50.5,50.1L82.6-0.3
			C140.1-2.3,154.2-96.7,88.3-95.2z"/>
	</g>
	<g id="Thin-M" transform="matrix(1 0 0 1 785.402 1126)">
		<path d="M28.5,21.6C33.7,15.9,48.1-1.8,53-3.7c8.8-1.1,9.4,4.3,23.5,3.5L36-40.5c-0.8,14,4.7,14.7,3.5,23.5
			C37.6-12.3,20,2.1,14.2,7.3C5.9,15.6,20.2,29.9,28.5,21.6z M86.7-95.2c-26,1.5-48.7,23.9-50.5,50.1L81-0.3
			C138.5-2.3,152.6-96.7,86.7-95.2z"/>
	</g>
	<g id="Ultralight-M" transform="matrix(1 0 0 1 489.496 1126)">
		<path d="M27.2,21.6c5.1-5.7,19.6-23.3,24.4-25.2c8.8-1.1,9.4,4.3,23.5,3.5L34.7-40.5c-0.8,14,4.7,14.7,3.5,23.5
			C36.3-12.3,18.7,2.1,12.9,7.3C4.6,15.6,18.9,29.9,27.2,21.6z M85.4-95.2c-26,1.5-48.7,23.9-50.5,50.1L79.7-0.3
			C137.2-2.3,151.3-96.7,85.4-95.2z"/>
	</g>
	<g id="Black-S" transform="matrix(1 0 0 1 2866.75 696)">
		<path d="M41.6-1.3c3-3.4,11.6-13.8,14.4-15c5.2-0.6,5.6,2.6,13.8,2.1L46-38c-0.5,8.2,2.8,8.7,2.1,13.8c-1.2,2.8-11.6,11.4-15,14.4
			C28.2-4.8,36.7,3.6,41.6-1.3z M75.9-70.3c-15.4,0.9-28.7,14.1-29.8,29.6l26.4,26.4C106.4-15.4,114.7-71.1,75.9-70.3z"/>
	</g>
	<g id="Heavy-S" transform="matrix(1 0 0 1 2571.99 696)">
		<path d="M39.7-1.3c3-3.4,11.6-13.8,14.4-15c5.2-0.6,5.6,2.6,13.8,2.1L44.1-38c-0.5,8.2,2.8,8.7,2.1,13.8
			c-1.2,2.8-11.6,11.4-15,14.4C26.3-4.9,34.7,3.6,39.7-1.3z M73.9-70.3c-15.4,0.9-28.7,14.1-29.8,29.6l26.4,26.4
			C104.5-15.5,112.8-71.1,73.9-70.3z"/>
	</g>
	<g id="Bold-S" transform="matrix(1 0 0 1 2277.45 696)">
		<path d="M38-1.5c3-3.4,11.6-13.8,14.4-15c5.2-0.6,5.6,2.6,13.8,2.1L42.4-38.2c-0.5,8.2,2.8,8.7,2.1,13.8C43.4-21.5,33-13,29.6-10
			C24.7-5,33.1,3.4,38-1.5z M72.3-70.4c-15.4,0.9-28.7,14.1-29.8,29.6L69-14.4C102.9-15.6,111.2-71.3,72.3-70.4z"/>
	</g>
	<g id="Semibold-S" transform="matrix(1 0 0 1 1982.23 696)">
		<path d="M36-1.4c3-3.4,11.6-13.8,14.4-15c5.2-0.6,5.6,2.6,13.8,2.1L40.4-38.1c-0.5,8.2,2.8,8.7,2.1,13.8
			c-1.2,2.8-11.6,11.4-15,14.4C22.6-5,31,3.5,36-1.4z M70.2-70.4c-15.4,0.9-28.7,14.1-29.8,29.6l26.4,26.4
			C100.8-15.6,109.1-71.2,70.2-70.4z"/>
	</g>
	<g id="Medium-S" transform="matrix(1 0 0 1 1686.67 696)">
		<path d="M34.8-1.4c3-3.4,11.6-13.8,14.4-15c5.2-0.6,5.6,2.6,13.8,2.1L39.2-38.1c-0.5,8.2,2.8,8.7,2.1,13.8
			c-1.2,2.8-11.6,11.4-15,14.4C21.5-4.9,29.9,3.5,34.8-1.4z M69.1-70.4c-15.4,0.9-28.7,14.1-29.8,29.6l26.4,26.4
			C99.7-15.5,108-71.2,69.1-70.4z"/>
	</g>
	<g id="Regular-S" transform="matrix(1 0 0 1 1391.45 696)">
		<path d="M33.7-1.4c3-3.4,11.6-13.8,14.4-15c5.2-0.6,5.6,2.6,13.8,2.1L38.1-38.1c-0.5,8.2,2.8,8.7,2.1,13.8
			c-1.2,2.8-11.6,11.4-15,14.4C20.3-5,28.8,3.5,33.7-1.4z M68-70.4c-15.4,0.9-28.7,14.1-29.8,29.6l26.4,26.4
			C98.6-15.6,106.9-71.2,68-70.4z"/>
	</g>
	<g id="Light-S" transform="matrix(1 0 0 1 1095.78 696)">
		<path d="M33.1-1.3c3-3.4,11.6-13.8,14.4-15c5.2-0.6,5.6,2.6,13.8,2.1L37.5-38c-0.5,8.2,2.8,8.7,2.1,13.8
			c-1.2,2.8-11.6,11.4-15,14.4C19.7-4.8,28.2,3.7,33.1-1.3z M67.4-70.2c-15.4,0.9-28.8,14-29.8,29.5L64-14.2
			C97.9-15.4,106.2-71.1,67.4-70.2z"/>
	</g>
	<g id="Thin-S" transform="matrix(1 0 0 1 800.465 696)">
		<path d="M30.9-1.1c3-3.4,11.6-13.8,14.4-15c5.2-0.6,5.6,2.6,13.8,2.1L35.3-37.8c-0.5,8.2,2.8,8.7,2.1,13.8
			c-1.2,2.8-11.6,11.4-15,14.4C17.5-4.6,26,3.9,30.9-1.1z M65.2-70c-15.4,0.9-28.8,14-29.8,29.5L61.8-14C95.7-15.2,104-70.9,65.2-70
			z"/>
	</g>
	<g id="Ultralight-S" transform="matrix(1 0 0 1 504.462 696)">
		<path d="M30-1.5c3-3.4,11.6-13.8,14.4-15c5.2-0.6,5.6,2.6,13.8,2.1L34.4-38.2c-0.5,8.2,2.8,8.7,2.1,13.8C35.3-21.5,25-13,21.6-10
			C16.7-5,25.1,3.4,30-1.5z M64.3-70.4c-15.4,0.9-28.7,14.1-29.8,29.6L61-14.4C94.9-15.6,103.2-71.3,64.3-70.4z"/>
	</g>
</g>
</svg>
