<?xml version="1.0" encoding="utf-8"?>
<!-- Generator: Adobe Illustrator 24.1.0, SVG Export Plug-In . SVG Version: 6.00 Build 0)  -->
<svg version="1.1" id="Layer_1" xmlns="http://www.w3.org/2000/svg" xmlns:xlink="http://www.w3.org/1999/xlink" x="0px" y="0px"
	 viewBox="0 0 3300 2200" style="enable-background:new 0 0 3300 2200;" xml:space="preserve">
<style type="text/css">
	.st0{fill:none;stroke:#000000;stroke-width:0.5;}
	.st1{font-family:'Arial-BoldMT';}
	.st2{font-size:12px;}
	.st3{font-family:'ArialMT';}
	.st4{opacity:0.4;fill:#00AEEF;enable-background:new    ;}
	.st5{fill:#27AAE1;}
	.st6{fill:none;stroke:#27AAE1;stroke-width:0.577;}
	.st7{fill-rule:evenodd;clip-rule:evenodd;}
</style>
<g id="Notes">
	<line class="st0" x1="263" y1="292" x2="3036" y2="292"/>
	<text transform="matrix(1 0 0 1 263 322)" class="st1 st2">Weight/Scale Variations</text>
	<text transform="matrix(1 0 0 1 536.0362 322)" class="st3 st2">Ultralight</text>
	<text transform="matrix(1 0 0 1 844.7501 322)" class="st3 st2">Thin</text>
	<text transform="matrix(1 0 0 1 1140.1193 322)" class="st3 st2">Light</text>
	<text transform="matrix(1 0 0 1 1428.8282 322)" class="st3 st2">Regular</text>
	<text transform="matrix(1 0 0 1 1725.2202 322)" class="st3 st2">Medium</text>
	<text transform="matrix(1 0 0 1 2018.2563 322)" class="st3 st2">Semibold</text>
	<text transform="matrix(1 0 0 1 2327.9712 322)" class="st3 st2">Bold</text>
	<text transform="matrix(1 0 0 1 2619.6831 322)" class="st3 st2">Heavy</text>
	<text transform="matrix(1 0 0 1 2918.728 322)" class="st3 st2">Black</text>
	<line class="st0" x1="263" y1="1903" x2="3036" y2="1903"/>
	<g transform="matrix(1 0 0 1 263 1933)">
		<path d="M9.2,0.8c4.3,0,7.9-3.6,7.9-7.9S13.5-15,9.2-15s-7.9,3.6-7.9,7.9C1.4-2.7,5,0.8,9.2,0.8z M9.2-0.7c-3.5,0-6.4-2.8-6.4-6.4
			s2.8-6.4,6.4-6.4s6.4,2.8,6.4,6.4C15.7-3.5,12.8-0.7,9.2-0.7z M9.2-3.4c0.5,0,0.7-0.3,0.7-0.8v-2.1h2.2C12.7-6.3,13-6.6,13-7
			c0-0.5-0.3-0.7-0.8-0.7H10V-10c0-0.5-0.3-0.8-0.7-0.8S8.5-10.5,8.5-10v2.2H6.3C5.8-7.8,5.4-7.5,5.4-7s0.4,0.7,0.8,0.7h2.2v2.1
			C8.5-3.8,8.8-3.4,9.2-3.4z"/>
	</g>
	<g transform="matrix(1 0 0 1 281.506 1933)">
		<path d="M11.7,2.9c5.4,0,10-4.5,10-10c0-5.4-4.5-10-10-10c-5.4,0-10,4.5-10,10C1.7-1.6,6.3,2.9,11.7,2.9z M11.7,1.2
			c-4.6,0-8.3-3.7-8.3-8.3s3.7-8.3,8.3-8.3S20-11.7,20-7.1C20-2.4,16.3,1.2,11.7,1.2z M11.7-2.4c0.5,0,0.8-0.4,0.8-0.9v-2.9h3.1
			c0.5,0,0.9-0.3,0.9-0.8s-0.4-0.8-0.9-0.8h-3.1v-3.1c0-0.6-0.3-0.9-0.8-0.9s-0.8,0.4-0.8,0.9v3.1h-3c-0.6-0.1-1,0.2-1,0.8
			c0,0.5,0.4,0.8,0.9,0.8h3v2.9C10.9-2.8,11.2-2.4,11.7-2.4z"/>
	</g>
	<g transform="matrix(1 0 0 1 304.924 1933)">
		<path d="M15,5.7c7,0,12.7-5.8,12.7-12.7c0-7-5.8-12.7-12.7-12.7C8-19.8,2.3-14,2.3-7C2.3-0.1,8,5.7,15,5.7z M15,3.9
			C8.9,3.9,4.1-1,4.1-7S8.9-17.9,15-17.9c6,0,10.9,4.9,10.9,10.9S21,3.9,15,3.9z M15-1.1c0.6,0,0.9-0.4,0.9-1v-4.1h4.2
			c0.6,0,1-0.3,1-0.9S20.7-8,20.1-8h-4.2v-4.2c0-0.6-0.4-1-0.9-1c-0.6,0-0.9,0.4-0.9,1V-8H9.8c-0.6,0-1,0.3-1,0.9s0.4,0.9,1,0.9H14
			v4.1C14.1-1.5,14.4-1.1,15-1.1z"/>
	</g>
	<text transform="matrix(1 0 0 1 263 1953)" class="st1 st2">Design Variations</text>
	<text transform="matrix(1 0 0 1 263 1971)" class="st3 st2">Symbols are supported in up to nine weights and three scales.</text>
	<text transform="matrix(1 0 0 1 263 1989)" class="st3 st2">For optimal layout with text and other symbols, vertically align</text>
	<text transform="matrix(1 0 0 1 263 2007)" class="st3 st2">symbols with the adjacent text.</text>
	<rect x="776" y="1919" class="st4" width="3" height="14"/>
	<g transform="matrix(1 0 0 1 779 1933)">
		<path d="M10.5,0h1.8L7.2-14.1H5.4L0.2,0H2l1.4-4H9L10.5,0z M6.3-12L6.3-12l2.3,6.4H4L6.3-12z"/>
	</g>
	<rect x="791.6" y="1919" class="st4" width="3" height="14"/>
	<text transform="matrix(1 0 0 1 776 1953)" class="st1 st2">Margins</text>
	<text transform="matrix(1 0 0 1 776 1971)" class="st3 st2">Leading and trailing margins on the left and right side of each symbol</text>
	<text transform="matrix(1 0 0 1 776 1989)" class="st3 st2">can be adjusted by modifying the width of the blue rectangles.</text>
	<text transform="matrix(1 0 0 1 776 2007)" class="st3 st2">Modifications are automatically applied proportionally to all</text>
	<text transform="matrix(1 0 0 1 776 2025)" class="st3 st2">scales and weights.</text>
	<g transform="matrix(1 0 0 1 1289 1933)">
		<path d="M2.8,3.1l1.5,1.5C5.1,5.4,6.1,5.4,7,4.4L17.3-6.7c0.4,0.3,0.8,0.3,1.3,0.2l1-0.2L20.3-6v0.5c-0.1,0.5,0.1,1,0.5,1.5
			l0.8,0.8c0.5,0.5,1.2,0.5,1.6,0.1l3.3-3.3C27-6.9,27-7.5,26.5-8l-0.8-0.8c-0.5-0.5-0.9-0.7-1.4-0.6l-0.5,0.1L23.1-10l0.3-1.1
			c0.1-0.6,0-1-0.6-1.6l-2.4-2.4c-3.5-3.5-8.1-3.4-11.2-0.3C8.8-15,8.7-14.4,9-14c0.2,0.4,0.7,0.6,1.4,0.4c1.5-0.4,3-0.3,4.5,0.7
			l-0.6,1.6c-0.2,0.6-0.2,1.1,0,1.5L3,0.4C2.1,1.3,2,2.3,2.8,3.1z M10.7-15.1c2.7-2,6-1.7,8.4,0.7l2.6,2.6c0.2,0.2,0.3,0.4,0.2,0.7
			l-0.4,1.6L23.1-8H24c0.3,0,0.4,0,0.6,0.2l0.6,0.6l-2.8,2.7l-0.6-0.6c-0.2-0.2-0.2-0.3-0.2-0.6l0.1-1l-1.6-1.6L18.5-8
			c-0.3,0.1-0.4,0.1-0.7-0.2l-2.2-2.2c-0.2-0.2-0.3-0.4-0.1-0.7l0.9-2.3c-1.6-1.5-3.7-2.4-5.8-1.7c-0.1,0-0.2,0-0.2,0
			C10.6-15,10.6-15.1,10.7-15.1z M4.1,2.4c-0.5-0.5-0.3-0.8,0-1.1l11-10.1l1.2,1.2L6.2,3.3c-0.3,0.3-0.7,0.4-1.1,0L4.1,2.4z"/>
	</g>
	<text transform="matrix(1 0 0 1 1289 1953)" class="st1 st2">Exporting</text>
	<text transform="matrix(1 0 0 1 1289 1971)" class="st3 st2">Symbols should be outlined when exporting to ensure the</text>
	<text transform="matrix(1 0 0 1 1289 1989)" class="st3 st2">design is preserved when submitting to Xcode.</text>
	<text id="template-version" transform="matrix(1 0 0 1 2958.8496 1933)" class="st3 st2">Template v.1.0</text>
	<text transform="matrix(1 0 0 1 2887.2656 1951)" class="st3 st2">Generated from chart.bar.fill</text>
	<text transform="matrix(1 0 0 1 2921.9238 1969)" class="st3 st2">Typeset at 100 points</text>
	<text transform="matrix(1 0 0 1 263 726)" class="st3 st2">Small</text>
	<text transform="matrix(1 0 0 1 263 1156)" class="st3 st2">Medium</text>
	<text transform="matrix(1 0 0 1 263 1586)" class="st3 st2">Large</text>
</g>
<g id="Guides">
	<g id="H-reference" transform="matrix(1 0 0 1 339 696)">
		<path class="st5" d="M54.9,0h2.7l-27-70.5h-2.5L1,0h2.7L13-24.5h32.8L54.9,0z M29.2-67.1h0.2l15.4,40.4h-31L29.2-67.1z"/>
	</g>
	<line id="Baseline-S" class="st6" x1="263" y1="696" x2="3036" y2="696"/>
	<line id="Capline-S" class="st6" x1="263" y1="625.5" x2="3036" y2="625.5"/>
	<g id="H-reference_1_" transform="matrix(1 0 0 1 339 1126)">
		<path class="st5" d="M54.9,0h2.7l-27-70.5h-2.5L1,0h2.7L13-24.5h32.8L54.9,0z M29.2-67.1h0.2l15.4,40.4h-31L29.2-67.1z"/>
	</g>
	<line id="Baseline-M" class="st6" x1="263" y1="1126" x2="3036" y2="1126"/>
	<line id="Capline-M" class="st6" x1="263" y1="1055.5" x2="3036" y2="1055.5"/>
	<g id="H-reference_2_" transform="matrix(1 0 0 1 339 1556)">
		<path class="st5" d="M54.9,0h2.7l-27-70.5h-2.5L1,0h2.7L13-24.5h32.8L54.9,0z M29.2-67.1h0.2l15.4,40.4h-31L29.2-67.1z"/>
	</g>
	<line id="Baseline-L" class="st6" x1="263" y1="1556" x2="3036" y2="1556"/>
	<line id="Capline-L" class="st6" x1="263" y1="1485.5" x2="3036" y2="1485.5"/>
	<rect id="left-margin" x="1376" y="1030.8" class="st4" width="12.5" height="119.3"/>
	<rect id="right-margin" x="1511.2" y="1030.8" class="st4" width="12.5" height="119.3"/>
</g>
<g id="Symbols">
	<g id="Black-L" transform="matrix(1 0 0 1 2827.27 1556)">
		<path class="st7" d="M46.4-52.9v78.3h37.3v-78.3C83.7-52.9,46.4-52.9,46.4-52.9z M128.6-32.3v57.7h37.2v-57.7
			C165.8-32.3,128.6-32.3,128.6-32.3z M87.5-54.8v80.2h37.3v-59.6v-59.7H87.5C87.5-93.9,87.5-54.8,87.5-54.8z"/>
	</g>
	<g id="Heavy-L" transform="matrix(1 0 0 1 2533.37 1556)">
		<path class="st7" d="M43.6-52.9v78.3h37.3v-78.3C80.9-52.9,43.6-52.9,43.6-52.9z M125.8-32.3v57.7H163v-57.7
			C163-32.3,125.8-32.3,125.8-32.3z M84.7-54.8v80.2h37.3v-59.6v-59.7H84.7C84.7-93.9,84.7-54.8,84.7-54.8z"/>
	</g>
	<g id="Bold-L" transform="matrix(1 0 0 1 2239.78 1556)">
		<path class="st7" d="M40.6-52.9v78.3h37.3v-78.3C77.8-52.9,40.6-52.9,40.6-52.9z M122.7-32.3v57.7h37.2v-57.7
			C159.9-32.3,122.7-32.3,122.7-32.3z M81.6-54.8v80.2h37.3v-59.6v-59.7H81.6C81.6-93.9,81.6-54.8,81.6-54.8z"/>
	</g>
	<g id="Semibold-L" transform="matrix(1 0 0 1 1945.24 1556)">
		<path class="st7" d="M38.4-52.9v78.3h37.3v-78.3C75.7-52.9,38.4-52.9,38.4-52.9z M120.6-32.3v57.7h37.2v-57.7
			C157.7-32.3,120.6-32.3,120.6-32.3z M79.4-54.8v80.2h37.3v-59.6v-59.7H79.4C79.4-93.9,79.4-54.8,79.4-54.8z"/>
	</g>
	<g id="Medium-L" transform="matrix(1 0 0 1 1650.17 1556)">
		<path class="st7" d="M36.8-52.9v78.3H74v-78.3C74-52.9,36.8-52.9,36.8-52.9z M118.9-32.3v57.7h37.2v-57.7
			C156.1-32.3,118.9-32.3,118.9-32.3z M77.8-54.8v80.2H115v-59.6v-59.7H77.8C77.8-93.9,77.8-54.8,77.8-54.8z"/>
	</g>
	<g id="Regular-L" transform="matrix(1 0 0 1 1355.58 1556)">
		<path class="st7" d="M34.6-52.9v78.3h37.3v-78.3C71.9-52.9,34.6-52.9,34.6-52.9z M116.8-32.3v57.7h37.2v-57.7
			C153.9-32.3,116.8-32.3,116.8-32.3z M75.6-54.8v80.2h37.3v-59.6v-59.7H75.6C75.6-93.9,75.6-54.8,75.6-54.8z"/>
	</g>
	<g id="Light-L" transform="matrix(1 0 0 1 1060.21 1556)">
		<path class="st7" d="M33.3-52.9v78.3h37.3v-78.3C70.6-52.9,33.3-52.9,33.3-52.9z M115.5-32.3v57.7h37.2v-57.7
			C152.6-32.3,115.5-32.3,115.5-32.3z M74.3-54.8v80.2h37.3v-59.6v-59.7H74.3C74.3-93.9,74.3-54.8,74.3-54.8z"/>
	</g>
	<g id="Thin-L" transform="matrix(1 0 0 1 765.26 1556)">
		<path class="st7" d="M31.5-52.9v78.3h37.3v-78.3C68.8-52.9,31.5-52.9,31.5-52.9z M113.7-32.3v57.7h37.2v-57.7
			C150.9-32.3,113.7-32.3,113.7-32.3z M72.6-54.8v80.2h37.3v-59.6v-59.7H72.6C72.6-93.9,72.6-54.8,72.6-54.8z"/>
	</g>
	<g id="Ultralight-L" transform="matrix(1 0 0 1 469.452 1556)">
		<path class="st7" d="M30.6-52.9v78.3h37.3v-78.3C67.9-52.9,30.6-52.9,30.6-52.9z M112.8-32.3v57.7h37.2v-57.7
			C149.9-32.3,112.8-32.3,112.8-32.3z M71.6-54.8v80.2h37.3v-59.6v-59.7H71.6C71.6-93.9,71.6-54.8,71.6-54.8z"/>
	</g>
	<g id="Black-M" transform="matrix(1 0 0 1 2848.1 1126)">
		<path class="st7" d="M25.6-54.2v78.3h37.3v-78.3C62.9-54.2,25.6-54.2,25.6-54.2z M107.8-33.6v57.7h37.2v-57.7
			C144.9-33.6,107.8-33.6,107.8-33.6z M66.6-56.1v80.2h37.3v-59.6v-59.7H66.6C66.6-95.2,66.6-56.1,66.6-56.1z"/>
	</g>
	<g id="Heavy-M" transform="matrix(1 0 0 1 2554.1 1126)">
		<path class="st7" d="M22.9-54.2v78.3h37.3v-78.3C60.2-54.2,22.9-54.2,22.9-54.2z M105.1-33.6v57.7h37.2v-57.7
			C142.2-33.6,105.1-33.6,105.1-33.6z M63.9-56.1v80.2h37.3v-59.6v-59.7H63.9C63.9-95.2,63.9-56.1,63.9-56.1z"/>
	</g>
	<g id="Bold-M" transform="matrix(1 0 0 1 2260.41 1126)">
		<path class="st7" d="M19.9-54.2v78.3h37.3v-78.3C57.2-54.2,19.9-54.2,19.9-54.2z M102.1-33.6v57.7h37.2v-57.7
			C139.3-33.6,102.1-33.6,102.1-33.6z M61-56.1v80.2h37.3v-59.6v-59.7H61C61-95.2,61-56.1,61-56.1z"/>
	</g>
	<g id="Semibold-M" transform="matrix(1 0 0 1 1965.8 1126)">
		<path class="st7" d="M17.8-54.2v78.3h37.3v-78.3C55.1-54.2,17.8-54.2,17.8-54.2z M100-33.6v57.7h37.2v-57.7
			C137.2-33.6,100-33.6,100-33.6z M58.9-56.1v80.2h37.3v-59.6v-59.7H58.9C58.9-95.2,58.9-56.1,58.9-56.1z"/>
	</g>
	<g id="Medium-M" transform="matrix(1 0 0 1 1670.68 1126)">
		<path class="st7" d="M16.2-54.2v78.3h37.3v-78.3C53.5-54.2,16.2-54.2,16.2-54.2z M98.4-33.6v57.7h37.2v-57.7
			C135.6-33.6,98.4-33.6,98.4-33.6z M57.3-56.1v80.2h37.3v-59.6v-59.7H57.3C57.3-95.2,57.3-56.1,57.3-56.1z"/>
	</g>
	<g id="Regular-M" transform="matrix(1 0 0 1 1376.04 1126)">
		<path class="st7" d="M14.2-54.2v78.3h37.3v-78.3C51.5-54.2,14.2-54.2,14.2-54.2z M96.4-33.6v57.7h37.2v-57.7
			C133.5-33.6,96.4-33.6,96.4-33.6z M55.3-56.1v80.2h37.3v-59.6v-59.7H55.3C55.3-95.2,55.3-56.1,55.3-56.1z"/>
	</g>
	<g id="Light-M" transform="matrix(1 0 0 1 1080.53 1126)">
		<path class="st7" d="M13-54.2v78.3h37.3v-78.3C50.3-54.2,13-54.2,13-54.2z M95.2-33.6v57.7h37.2v-57.7
			C132.3-33.6,95.2-33.6,95.2-33.6z M54-56.1v80.2h37.3v-59.6v-59.7H54C54-95.2,54-56.1,54-56.1z"/>
	</g>
	<g id="Thin-M" transform="matrix(1 0 0 1 785.402 1126)">
		<path class="st7" d="M11.4-54.2v78.3h37.3v-78.3C48.7-54.2,11.4-54.2,11.4-54.2z M93.6-33.6v57.7h37.2v-57.7
			C130.7-33.6,93.6-33.6,93.6-33.6z M52.4-56.1v80.2h37.3v-59.6v-59.7H52.4C52.4-95.2,52.4-56.1,52.4-56.1z"/>
	</g>
	<g id="Ultralight-M" transform="matrix(1 0 0 1 489.496 1126)">
		<path class="st7" d="M10.1-54.2v78.3h37.3v-78.3C47.4-54.2,10.1-54.2,10.1-54.2z M92.3-33.6v57.7h37.2v-57.7
			C129.4-33.6,92.3-33.6,92.3-33.6z M51.1-56.1v80.2h37.3v-59.6v-59.7H51.1C51.1-95.2,51.1-56.1,51.1-56.1z"/>
	</g>
	<g id="Black-S" transform="matrix(1 0 0 1 2866.75 696)">
		<path class="st7" d="M7-53.7v78.3h37.3v-78.3C44.2-53.7,7-53.7,7-53.7z M89.1-33.1v57.7h37.2v-57.7
			C126.3-33.1,89.1-33.1,89.1-33.1z M48-55.6v80.2h37.3V-35v-59.7H48C48-94.7,48-55.6,48-55.6z"/>
	</g>
	<g id="Heavy-S" transform="matrix(1 0 0 1 2571.99 696)">
		<path class="st7" d="M5.1-53.7v78.3h37.3v-78.3C42.3-53.7,5.1-53.7,5.1-53.7z M87.2-33.1v57.7h37.2v-57.7
			C124.4-33.1,87.2-33.1,87.2-33.1z M46.1-55.6v80.2h37.3V-35v-59.7H46.1C46.1-94.7,46.1-55.6,46.1-55.6z"/>
	</g>
	<g id="Bold-S" transform="matrix(1 0 0 1 2277.45 696)">
		<path class="st7" d="M3.5-53.8v78.3h37.3v-78.3C40.7-53.8,3.5-53.8,3.5-53.8z M85.6-33.2v57.7h37.2v-57.7
			C122.8-33.2,85.6-33.2,85.6-33.2z M44.5-55.8v80.2h37.3v-59.6v-59.7H44.5C44.5-94.9,44.5-55.8,44.5-55.8z"/>
	</g>
	<g id="Semibold-S" transform="matrix(1 0 0 1 1982.23 696)">
		<path class="st7" d="M1.4-53.8v78.3h37.3v-78.3C38.6-53.8,1.4-53.8,1.4-53.8z M83.5-33.2v57.7h37.2v-57.7
			C120.7-33.2,83.5-33.2,83.5-33.2z M42.4-55.7v80.2h37.3v-59.6v-59.7H42.4C42.4-94.8,42.4-55.7,42.4-55.7z"/>
	</g>
	<g id="Medium-S" transform="matrix(1 0 0 1 1686.67 696)">
		<path class="st7" d="M0.2-53.8v78.3h37.3v-78.3C37.5-53.8,0.2-53.8,0.2-53.8z M82.4-33.2v57.7h37.2v-57.7
			C119.5-33.2,82.4-33.2,82.4-33.2z M41.3-55.7v80.2h37.3v-59.6v-59.7H41.3C41.3-94.8,41.3-55.7,41.3-55.7z"/>
	</g>
	<g id="Regular-S" transform="matrix(1 0 0 1 1391.45 696)">
		<path class="st7" d="M-0.9-53.8v78.3h37.3v-78.3C36.4-53.8-0.9-53.8-0.9-53.8z M81.3-33.2v57.7h37.2v-57.7
			C118.4-33.2,81.3-33.2,81.3-33.2z M40.1-55.7v80.2h37.3v-59.6v-59.7H40.1C40.1-94.8,40.1-55.7,40.1-55.7z"/>
	</g>
	<g id="Light-S" transform="matrix(1 0 0 1 1095.78 696)">
		<path class="st7" d="M-1.5-53.6v78.3h37.3v-78.3C35.7-53.6-1.5-53.6-1.5-53.6z M80.6-33v57.7h37.2V-33C117.8-33,80.6-33,80.6-33z
			 M39.5-55.6v80.2h37.3v-59.6v-59.7H39.5C39.5-94.7,39.5-55.6,39.5-55.6z"/>
	</g>
	<g id="Thin-S" transform="matrix(1 0 0 1 800.465 696)">
		<path class="st7" d="M-3.7-53.4v78.3h37.3v-78.3C33.5-53.4-3.7-53.4-3.7-53.4z M78.4-32.8v57.7h37.2v-57.7
			C115.6-32.8,78.4-32.8,78.4-32.8z M37.3-55.4v80.2h37.3v-59.6v-59.7H37.3C37.3-94.5,37.3-55.4,37.3-55.4z"/>
	</g>
	<g id="Ultralight-S" transform="matrix(1 0 0 1 504.462 696)">
		<path class="st7" d="M-4.5-53.8v78.3h37.3v-78.3C32.7-53.8-4.5-53.8-4.5-53.8z M77.6-33.2v57.7h37.2v-57.7
			C114.8-33.2,77.6-33.2,77.6-33.2z M36.5-55.8v80.2h37.3v-59.6v-59.7H36.5C36.5-94.9,36.5-55.8,36.5-55.8z"/>
	</g>
</g>
</svg>
